<?xml version="1.0" ?><svg id="Layer_1" style="enable-background:new 0 0 128 128;" version="1.1" viewBox="0 0 128 128" xml:space="preserve" xmlns="http://www.w3.org/2000/svg" xmlns:xlink="http://www.w3.org/1999/xlink"><g><path d="M88,49c0-13.2-10.8-24-24-24S40,35.8,40,49s10.8,24,24,24S88,62.2,88,49z"/><path d="M12.2,94.5c1.5-0.8,2-2.6,1.3-4.1C9.2,82.4,7,73.2,7,64C7,32.6,32.6,7,64,7s57,25.6,57,57c0,13.9-5,26.7-13.3,36.6   c-2.8-2.7-5.9-5.1-9.1-7.2c-0.1-0.1-0.2-0.2-0.3-0.3c-9.2-6-19.7-9.4-30.7-10c-0.2,0-0.4,0-0.6,0c-1,0-2-0.1-3-0.1   c-17.3,0-34.1,7.3-46,19.9c-0.4,0.5-0.7,1-0.8,1.6c-0.1,0.9,0.1,1.8,0.8,2.5C29.9,119.7,46.6,127,64,127c34.7,0,63-28.3,63-63   S98.7,1,64,1S1,29.3,1,64c0,10.2,2.5,20.3,7.2,29.2C9,94.7,10.8,95.3,12.2,94.5z M64,121c-13.8,0-26.6-4.7-37-13.7   c-1.3-1.1-1.4-3-0.3-4.2c1.1-1.3,3-1.4,4.2-0.3c9.3,8,20.8,12.2,33.1,12.2c1.7,0,3,1.3,3,3S65.7,121,64,121z"/></g></svg>