<svg width="210" height="54" viewBox="0 0 210 54" fill="none" xmlns="http://www.w3.org/2000/svg">
<g clip-path="url(#clip0_1037_60)">
<path d="M22.9807 0L13.8979 5.25274V26.4825C13.8979 31.5164 17.9468 35.5654 22.9807 35.5654C24.7316 35.5654 26.3731 35.1277 27.9052 34.1428V45.3049L22.9807 48.1501L4.26785 37.4257V15.7582L9.08286 13.0224V8.09797L0 13.2413V39.8333L22.9807 53.0745L32.0636 47.8218V26.592C32.0636 21.5581 28.0146 17.5091 22.9807 17.5091C21.2298 17.5091 19.5883 18.0563 18.0563 18.9317V7.76967L22.9807 4.92444L41.6936 15.7582V37.4257L36.8786 40.1615V45.086L45.852 39.8333V13.2413L22.9807 0ZM22.9807 21.6675C25.6071 21.6675 27.7957 23.8562 27.7957 26.4825C27.7957 29.1089 25.6071 31.2976 22.9807 31.2976C20.3544 31.2976 18.1657 29.1089 18.1657 26.4825C18.1657 23.8562 20.3544 21.6675 22.9807 21.6675Z" fill="#1173BA"/>
<path d="M22.981 21.6675C25.6074 21.6675 27.796 23.8561 27.796 26.4825C27.796 29.1089 25.6074 31.2975 22.981 31.2975C20.3547 31.2975 18.166 29.1089 18.166 26.4825C18.166 23.8561 20.3547 21.6675 22.981 21.6675Z" fill="#24B3E8"/>
<path d="M56.2484 15.8675C54.9352 17.8373 54.0597 19.0411 53.622 19.3694L51.8711 17.0713C55.0446 13.2412 57.2333 8.31674 58.2181 2.51685L60.7351 3.3923C61.2822 3.61117 61.1728 3.83003 60.6257 4.04889C60.1879 6.4564 59.5313 8.64504 58.6559 10.7242L59.203 10.8337C59.4219 11.0525 59.4219 11.3808 58.9842 11.5997V31.0786H56.4672V15.8675H56.2484ZM62.8143 20.6826V18.2751H68.3953V13.8978H60.1879V11.4903H68.3953V6.89413H62.8143V4.48662H78.4631V11.4903H81.746V13.8978H78.4631V22.324H75.9461V20.6826H70.9123C70.6934 25.607 67.8482 29.3277 62.2671 31.5163L60.8445 28.89C65.5501 27.2485 67.9576 24.5127 68.1765 20.6826H62.8143ZM70.9123 6.89413V11.4903H75.9461V6.89413H70.9123ZM75.9461 13.8978H70.9123V18.2751H75.9461V13.8978Z" fill="black"/>
<path d="M112.497 11.4902V14.226H100.24V26.2636H110.636V28.9994H86.6707V26.2636H97.2856V14.226H85.1387V11.4902H97.2856V3.50171H100.021C100.897 3.72057 100.897 4.04887 100.131 4.4866V11.4902H112.497Z" fill="black"/>
<path d="M123.549 3.61121H125.957C126.613 3.72064 126.723 3.9395 126.066 4.37723V9.30167H130.662V1.96973H133.07C133.726 2.07916 133.836 2.29802 133.179 2.73575V4.92439H141.605V7.33189H133.179V9.30167H145.107V11.7092H117.749V9.30167H123.549V3.61121V3.61121ZM138.432 28.124V24.7316H124.424V31.2975H121.908V13.3507H141.058V28.6711C141.058 30.3126 140.292 31.0786 138.87 31.0786H136.134L135.587 28.6711H137.994C138.213 28.6711 138.432 28.4523 138.432 28.124ZM124.424 17.9468H138.432V15.7582H124.424V17.9468ZM124.424 20.3543V22.3241H138.432V20.3543H124.424Z" fill="black"/>
<path d="M149.594 16.743C153.205 13.4601 155.503 8.97336 156.379 3.17346L159.114 3.93949C159.662 4.15835 159.552 4.48665 158.786 4.92437C158.567 6.23756 158.02 8.0979 157.035 10.5054L157.801 10.7243C158.13 10.9431 158.02 11.2714 157.473 11.5997V30.3126H154.956V14.6638C153.971 16.3053 152.767 17.7279 151.235 19.0411L149.594 16.743ZM177.608 22.9807L177.28 25.9353C176.952 28.3428 175.748 29.656 173.559 29.656H165.133C163.601 29.656 162.835 28.89 162.835 27.4674V3.61119H165.243C166.118 3.72062 166.118 3.93949 165.352 4.37721V13.7884C168.526 12.4752 171.48 10.8337 174.216 8.86393L176.076 11.162C176.624 11.7092 176.405 11.928 175.42 11.928C171.809 13.7884 168.416 15.3204 165.352 16.6336V25.8259C165.352 26.4825 165.68 26.8108 166.228 26.8108H172.903C173.778 26.8108 174.325 26.373 174.435 25.4976L174.654 22.4335L177.608 22.9807Z" fill="black"/>
<path d="M185.05 3.17357L186.911 3.72073L190.412 2.84527L191.397 4.15846C191.944 4.70562 191.726 4.92448 191.069 4.81505L187.129 5.14334V6.78482H191.069V8.7546H187.129V10.5055H191.069V12.4753H187.129V14.3356H204.967V12.4753H201.027V10.6149H204.967V8.7546H201.027V6.78482H204.967V5.14334H201.027V3.06414H207.046V14.4451H209.672V19.8072H207.155V16.5243H184.941V19.8072H182.424V14.4451H184.941V3.17357H185.05ZM204.42 20.0261L197.744 22.6525V23.1996H209.125V25.6071H197.744V29.109C197.744 30.4221 197.197 31.0787 196.103 31.0787H193.148L192.492 28.6712H194.68C195.009 28.6712 195.227 28.4524 195.227 28.1241V25.4977H183.299V23.0902H195.227V21.3393L196.322 21.5581L199.057 20.4638H187.348V18.494H202.231L202.778 17.9469L204.748 19.3695C205.295 19.9167 205.186 20.1355 204.42 20.0261ZM192.601 8.53574L191.726 7.00369C193.039 6.45653 194.024 6.0188 194.68 5.58107C194.024 5.25278 193.367 4.81505 192.71 4.48675L193.695 3.17357C194.571 3.50186 195.556 3.93959 196.322 4.48675C196.978 3.93959 197.744 3.283 198.51 2.73584L199.824 3.72073C200.261 4.04902 200.152 4.26789 199.605 4.26789C199.057 4.70562 198.51 5.14334 198.073 5.58107C198.729 6.0188 199.386 6.3471 199.933 6.67539L198.839 8.09801C198.073 7.66028 197.307 7.22255 196.541 6.67539C195.227 7.44142 194.024 7.98858 192.601 8.53574ZM195.118 11.0527C194.571 10.6149 193.805 10.1772 193.148 9.73949L194.133 8.31687C195.009 8.86403 195.884 9.30176 196.65 9.84892C197.525 9.30176 198.291 8.7546 198.948 8.20744L200.261 9.19233C200.699 9.52062 200.59 9.73949 200.042 9.73949C199.495 10.1772 198.948 10.5055 198.401 10.8338C199.167 11.2715 199.824 11.7093 200.371 12.147L199.495 13.7885C198.62 13.2413 197.744 12.6942 196.869 12.147C195.446 13.0224 194.133 13.679 193.039 14.0073L192.054 12.4753C193.148 12.147 194.133 11.7093 195.118 11.0527Z" fill="black"/>
<path d="M61.9385 49.901H54.7159V37.6447H61.7196V39.8333H57.3423V42.6785H61.3913V44.8672H57.3423V47.8218H61.9385V49.901Z" fill="black"/>
<path d="M64.8932 41.6936C65.3309 41.4748 65.7686 41.2559 66.4252 41.1465C67.0818 41.037 67.629 40.9276 68.0667 40.9276C70.4742 40.9276 71.7874 42.1314 71.7874 44.6483V49.901H69.3799V48.5879C68.8327 49.5727 67.9573 50.1199 66.7535 50.1199C65.878 50.1199 65.2215 49.901 64.7837 49.4633C64.2366 49.0256 64.0177 48.369 64.0177 47.4935C64.0177 45.8521 65.0026 44.8672 66.9724 44.5389L69.3799 44.2106C69.3799 43.2257 68.8327 42.6785 67.7384 42.6785C66.6441 42.6785 65.6592 43.0068 64.7837 43.6634V41.6936H64.8932ZM67.8478 45.9615C66.9724 46.0709 66.4252 46.5086 66.4252 47.1652C66.4252 47.4935 66.5346 47.7124 66.7535 47.9313C66.9724 48.1501 67.3007 48.2596 67.629 48.2596C68.1761 48.2596 68.6138 48.0407 68.9421 47.7124C69.2704 47.3841 69.4893 46.8369 69.4893 46.2898V45.6332L67.8478 45.9615Z" fill="black"/>
<path d="M74.7424 47.603C75.6178 48.1502 76.4933 48.3691 77.2593 48.3691C78.3536 48.3691 78.7914 48.0408 78.7914 47.4936C78.7914 47.0559 78.3536 46.7276 77.4782 46.5087C76.3839 46.1804 75.6178 45.7427 75.2895 45.4144C74.8518 44.9767 74.6329 44.4295 74.6329 43.7729C74.6329 42.8975 74.9612 42.2409 75.7273 41.8031C76.4933 41.3654 77.3687 41.0371 78.4631 41.0371C79.2291 41.0371 79.9951 41.1465 80.7611 41.3654V43.3352C80.1045 42.8975 79.3385 42.788 78.4631 42.788C78.0253 42.788 77.697 42.8975 77.4782 43.0069C77.2593 43.1163 77.1499 43.3352 77.1499 43.554C77.1499 43.9918 77.4782 44.3201 78.2442 44.5389C79.0102 44.7578 79.6668 45.0861 79.9951 45.305C80.4328 45.5238 80.6517 45.8521 80.8706 46.1804C81.0894 46.5087 81.1989 46.9464 81.1989 47.3842C81.1989 48.2596 80.8706 49.0256 80.1045 49.4634C79.3385 50.0105 78.4631 50.2294 77.2593 50.2294C76.2744 50.2294 75.399 50.12 74.6329 49.7917V47.603H74.7424Z" fill="black"/>
<path d="M90.4999 49.5726C89.8433 49.9009 88.9679 50.1198 87.8736 50.1198C86.5604 50.1198 85.4661 49.682 84.5906 48.916C83.7151 48.15 83.3868 47.0557 83.3868 45.7425C83.3868 44.2104 83.8246 43.1161 84.7 42.2407C85.5755 41.3652 86.7792 40.9275 88.2019 40.9275C89.1867 40.9275 89.9528 41.0369 90.3905 41.3652V43.5539C89.8433 43.1161 89.1867 42.8973 88.5302 42.8973C87.7641 42.8973 87.1075 43.1161 86.6698 43.6633C86.2321 44.2105 86.0132 44.7576 86.0132 45.6331C86.0132 46.3991 86.2321 47.0557 86.6698 47.4934C87.1075 47.9311 87.7641 48.15 88.5302 48.15C89.1867 48.15 89.8433 47.9311 90.4999 47.4934V49.5726Z" fill="black"/>
<path d="M101.553 49.901H99.0362V44.8671C99.0362 43.554 98.5985 42.8974 97.6136 42.8974C97.1759 42.8974 96.7382 43.1162 96.4099 43.4445C96.0816 43.7728 95.9721 44.32 95.9721 44.8671V49.901H93.4552V36.988H95.9721V42.4596C96.6287 41.4747 97.5042 40.9276 98.7079 40.9276C100.678 40.9276 101.663 42.1313 101.663 44.5388V49.901H101.553Z" fill="black"/>
<path d="M112.496 46.2897H106.696C106.805 47.6028 107.571 48.3689 109.103 48.3689C110.088 48.3689 110.964 48.15 111.62 47.6028V49.4632C110.854 49.9009 109.76 50.1198 108.447 50.1198C107.024 50.1198 105.93 49.682 105.164 48.916C104.398 48.15 103.96 47.0557 103.96 45.6331C103.96 44.2104 104.398 43.1161 105.164 42.2407C106.039 41.3652 107.024 40.9275 108.228 40.9275C109.432 40.9275 110.417 41.2558 111.183 42.0218C111.839 42.7878 112.277 43.7727 112.277 45.0859V46.2897H112.496ZM110.198 44.6482C110.198 43.335 109.651 42.6784 108.556 42.6784C108.118 42.6784 107.681 42.8973 107.352 43.2256C107.024 43.5539 106.805 44.101 106.696 44.6482H110.198Z" fill="black"/>
<path d="M128.911 49.901H126.394V44.8671C126.394 43.5539 125.956 42.8973 124.971 42.8973C124.533 42.8973 124.095 43.1162 123.877 43.5539C123.548 43.9916 123.439 44.4294 123.439 45.086V50.0104H120.922V44.8671C120.922 43.5539 120.484 42.8973 119.499 42.8973C119.062 42.8973 118.624 43.1162 118.296 43.4445C117.967 43.8822 117.858 44.3199 117.858 44.9765V49.901H115.341V41.1464H117.858V42.4596C118.186 41.9124 118.624 41.5841 119.062 41.2558C119.609 40.9275 120.047 40.8181 120.703 40.8181C121.907 40.8181 122.782 41.3653 123.22 42.4596C123.877 41.3653 124.862 40.8181 126.175 40.8181C128.035 40.8181 129.02 42.0219 129.02 44.3199V49.901H128.911Z" fill="black"/>
<path d="M146.858 49.4633C145.982 49.901 144.779 50.1199 143.356 50.1199C141.496 50.1199 140.073 49.5727 138.979 48.4784C137.884 47.3841 137.337 45.852 137.337 44.1011C137.337 42.1314 137.994 40.5993 139.197 39.3956C140.401 38.1918 141.933 37.5352 143.903 37.5352C145.107 37.5352 146.092 37.6447 146.858 37.9729V40.4899C145.982 40.0522 145.107 39.7239 144.013 39.7239C142.809 39.7239 141.824 40.0522 141.167 40.8182C140.511 41.5842 140.073 42.5691 140.073 43.7728C140.073 44.9766 140.401 45.9615 141.058 46.7275C141.714 47.4935 142.699 47.8218 143.794 47.8218C144.888 47.8218 145.873 47.603 146.748 47.0558V49.4633H146.858Z" fill="black"/>
<path d="M149.155 45.6333C149.155 44.2106 149.593 43.1163 150.469 42.2409C151.344 41.3654 152.438 41.0371 153.97 41.0371C155.393 41.0371 156.487 41.4748 157.363 42.2409C158.238 43.0069 158.567 44.1012 158.567 45.5238C158.567 46.9464 158.129 48.1502 157.253 48.9162C156.378 49.7917 155.284 50.2294 153.752 50.2294C152.329 50.2294 151.235 49.7917 150.359 49.0256C149.484 48.2596 149.155 46.9464 149.155 45.6333ZM151.782 45.5238C151.782 47.2747 152.548 48.1502 153.97 48.1502C155.284 48.1502 156.05 47.2747 156.05 45.4144C156.05 43.6635 155.393 42.8975 153.97 42.8975C153.314 42.8975 152.767 43.1163 152.438 43.554C152.001 44.1012 151.782 44.7578 151.782 45.5238Z" fill="black"/>
<path d="M160.975 48.8066C160.975 48.3689 161.084 48.0406 161.412 47.8217C161.741 47.6028 162.069 47.4934 162.507 47.4934C162.945 47.4934 163.273 47.6028 163.601 47.9311C163.929 48.15 164.039 48.4783 164.039 48.916C164.039 49.3538 163.929 49.682 163.601 49.9009C163.273 50.1198 162.945 50.2292 162.507 50.2292C162.069 50.2292 161.741 50.1198 161.412 49.7915C161.084 49.4632 160.975 49.1349 160.975 48.8066Z" fill="black"/>
<path d="M169.4 47.8218L168.087 52.0896H166.117L166.993 47.8218H169.4Z" fill="black"/>
<path d="M185.815 49.9009H178.593V37.6445H181.219V47.7123H185.815V49.9009Z" fill="black"/>
<path d="M193.147 49.7916C192.71 50.0104 192.163 50.1199 191.397 50.1199C189.536 50.1199 188.661 49.135 188.661 47.1652V43.0068H187.129V41.1464H188.551V39.1767L191.068 38.4106V41.037H193.038V42.8974H191.068V46.618C191.068 47.6029 191.397 48.0407 192.163 48.0407C192.491 48.0407 192.71 47.9312 193.038 47.8218V49.7916H193.147Z" fill="black"/>
<path d="M203.981 49.901H201.464V48.6973C200.808 49.6821 199.932 50.1199 198.729 50.1199C197.634 50.1199 196.759 49.6821 196.102 48.9161C195.446 48.1501 195.117 47.0558 195.117 45.7426C195.117 44.32 195.446 43.1162 196.212 42.2408C196.978 41.3653 197.853 40.9276 199.057 40.9276C200.151 40.9276 201.027 41.3653 201.464 42.1313V36.8786H203.981V49.901V49.901ZM201.464 44.9766C201.464 44.4294 201.246 43.8822 200.917 43.554C200.589 43.1162 200.151 43.0068 199.604 43.0068C198.947 43.0068 198.51 43.2257 198.181 43.7728C197.853 44.32 197.634 44.9766 197.634 45.7426C197.634 46.5086 197.853 47.1652 198.181 47.6029C198.51 48.0407 198.947 48.2595 199.604 48.2595C200.151 48.2595 200.589 48.0407 201.027 47.6029C201.355 47.1652 201.574 46.5086 201.574 45.852V44.9766H201.464Z" fill="black"/>
<path d="M206.936 48.8068C206.936 48.369 207.045 48.0408 207.373 47.8219C207.702 47.603 208.03 47.4936 208.468 47.4936C208.905 47.4936 209.234 47.603 209.562 47.9313C209.89 48.2596 210 48.4785 210 48.9162C210 49.3539 209.89 49.6822 209.562 49.9011C209.234 50.12 208.905 50.2294 208.468 50.2294C208.03 50.2294 207.702 50.12 207.373 49.7917C207.045 49.4634 206.936 49.1351 206.936 48.8068Z" fill="black"/>
</g>
<defs>
<clipPath id="clip0_1037_60">
<rect width="210" height="53.0745" fill="white"/>
</clipPath>
</defs>
</svg>
